<svg aria-hidden="true" style="position: absolute; width: 0; height: 0; overflow: hidden;" version="1.1" xmlns="http://www.w3.org/2000/svg" xmlns:xlink="http://www.w3.org/1999/xlink">
<defs>
<symbol id="icon-truck" viewBox="0 0 32 32">
<path fill="#fff" style="fill: var(--color1, #fff)" d="M22.667 10.667h4l4 5.408v7.925h-2.713c-0.159 1.112-0.713 2.13-1.562 2.867s-1.935 1.142-3.058 1.142-2.209-0.405-3.058-1.142c-0.849-0.736-1.403-1.754-1.562-2.867h-6.76c-0.159 1.112-0.713 2.13-1.562 2.867s-1.935 1.142-3.058 1.142-2.21-0.405-3.058-1.142c-0.849-0.736-1.403-1.754-1.562-2.867h-1.38v-16c0-0.354 0.14-0.693 0.391-0.943s0.589-0.391 0.943-0.391h18.667c0.354 0 0.693 0.14 0.943 0.391s0.391 0.589 0.391 0.943v2.667zM22.667 13.333v4h5.333v-0.38l-2.677-3.62h-2.656z"></path>
</symbol>
<symbol id="icon-recycle" viewBox="0 0 32 32">
<path fill="#fff" style="fill: var(--color1, #fff)" d="M26.083 16.131l2.041 3.536c1.289 2.232 0.524 5.087-1.707 6.375-0.711 0.409-1.515 0.625-2.333 0.625h-2.751v2.667l-6.667-4.667 6.667-4.667v2.667h2.749c0.117 0 0.232-0.031 0.333-0.089 0.284-0.164 0.401-0.504 0.295-0.801l-0.051-0.109-2.041-3.536 3.464-2zM10.316 12.512l0.707 8.107-2.307-1.333-1.376 2.381c-0.059 0.101-0.089 0.216-0.089 0.333 0 0.327 0.236 0.6 0.547 0.656l0.12 0.011h4.083v4h-4.083c-2.577 0-4.667-2.089-4.667-4.667 0-0.819 0.216-1.624 0.625-2.333l1.375-2.381-2.309-1.333 7.375-3.44zM18.333 3.959c0.709 0.409 1.299 0.999 1.708 1.708l1.373 2.381 2.311-1.333-0.707 8.107-7.376-3.44 2.309-1.333-1.375-2.381c-0.059-0.101-0.143-0.187-0.244-0.244-0.284-0.164-0.637-0.096-0.841 0.147l-0.069 0.097-2.040 3.536-3.465-2 2.040-3.536c1.289-2.232 4.144-2.997 6.376-1.708z"></path>
</symbol>
<symbol id="icon-ruler" viewBox="0 0 32 32">
<path fill="#fff" style="fill: var(--color1, #fff)" d="M20 28h-2.667v-4h-2.667v4h-2.667v-2.667h-2.667v2.667h-4c-0.354 0-0.693-0.141-0.943-0.391s-0.391-0.589-0.391-0.943v-4h2.667v-2.667h-2.667v-2.667h4v-2.667h-4v-2.667h2.667v-2.667h-2.667v-4c0-0.354 0.14-0.693 0.391-0.943s0.589-0.391 0.943-0.391h8c0.354 0 0.693 0.14 0.943 0.391s0.391 0.589 0.391 0.943v12h12c0.354 0 0.693 0.141 0.943 0.391s0.391 0.589 0.391 0.943v8c0 0.354-0.141 0.693-0.391 0.943s-0.589 0.391-0.943 0.391h-4v-2.667h-2.667v2.667z"></path>
</symbol>
<symbol id="icon-basket" viewBox="0 0 32 32">
<path fill="#fff" style="fill: var(--color1, #fff)" d="M8.667 2.667h14.667c0.207 0 0.411 0.048 0.596 0.141s0.346 0.227 0.47 0.393l3.6 4.8v20c0 0.354-0.14 0.693-0.39 0.943s-0.589 0.391-0.943 0.391h-21.333c-0.354 0-0.693-0.14-0.943-0.391s-0.391-0.589-0.391-0.943v-20l3.6-4.8c0.124-0.166 0.285-0.3 0.47-0.393s0.389-0.141 0.596-0.141zM24.667 8l-2-2.667h-13.333l-2 2.667h17.333zM12 13.333h-2.667v2.667c0 1.768 0.702 3.464 1.953 4.714s2.946 1.953 4.714 1.953 3.464-0.702 4.714-1.953c1.25-1.25 1.953-2.946 1.953-4.714v-2.667h-2.667v2.667c0 1.061-0.421 2.078-1.172 2.828s-1.767 1.172-2.828 1.172-2.078-0.421-2.828-1.172c-0.75-0.75-1.172-1.767-1.172-2.828v-2.667z"></path>
</symbol>
</defs>
</svg>
